<svg xmlns:xlink="http://imvector.com/2021/xlink" width="72" height="72" viewBox="0 0 14 14" fill="none" xmlns="http://www.w3.org/2000/svg" transform=" scale(1 1) rotate(0) translate(0 0)" style="background:#6161a1">
<path d="M10.1562 4.03125C9.71875 3.65625 9.21875 3.5 8.75 3.5C8.0625 3.5 7.40625 3.8125 7 4.25C6.59375 3.8125 5.90625 3.5 5.21875 3.5C4.75 3.5 4.25 3.65625 3.8125 4.03125C2.65625 5.03125 2.8125 6.625 3.65625 7.46875L6.40625 10.2812C6.5625 10.4375 6.78125 10.5 6.96875 10.5H7C7.1875 10.5 7.40625 10.4375 7.5625 10.2812L10.3125 7.46875C11.1562 6.625 11.3125 5.03125 10.1562 4.03125ZM9.25 6.4375L7 8.71875L4.71875 6.4375C4.59375 6.3125 4.21875 5.65625 4.78125 5.1875C5.21875 4.8125 5.78125 5.125 5.90625 5.28125L7 6.375L8.0625 5.28125C8.1875 5.125 8.75 4.8125 9.1875 5.1875C9.75 5.65625 9.375 6.3125 9.25 6.4375ZM12.25 0H1.75C0.78125 0 0 0.8125 0 1.75V12.25C0 13.2188 0.78125 14 1.75 14H12.25C13.1875 14 14 13.2188 14 12.25V1.75C14 0.8125 13.1875 0 12.25 0ZM12.5 12.25C12.5 12.4062 12.375 12.5 12.25 12.5H1.75C1.59375 12.5 1.5 12.4062 1.5 12.25V1.75C1.5 1.625 1.59375 1.5 1.75 1.5H12.25C12.375 1.5 12.5 1.625 12.5 1.75V12.25Z" fill="#fff"/>
</svg>